#!OML:ASF E:\Style4\Style4.ASF
:FULLY-SPECIFIED
:DEGREES
4299
root 0.623128 17.314 -1.88445 7.66399 -21.1388 -2.26274
lowerback 17.3368 1.27387 -4.3605
upperback 9.3186 0.894108 0.113264
thorax 0.189008 0.230157 2.43155
lowerneck -3.12809 -3.09273 -5.94594
upperneck 1.08821 -4.10996 9.3541
head 1.26632 -1.97592 4.04413
rclavicle -2.78299e-015 -1.43125e-014
rhumerus 37.8238 9.44763 -54.0679
rradius 47.3395
rwrist -8.65554
rhand 28.5234 4.26556
rfingers 7.12502
rthumb 52.3747 -15.6149
lclavicle -2.78299e-015 -1.43125e-014
lhumerus 69.26 -20.2466 13.4938
lradius 76.4921
lwrist 15.1876
lhand 27.3641 27.821
lfingers 7.12502
lthumb 51.3223 48.3207
rfemur -34.3419 6.64267 19.8003
rtibia 41.8419
rfoot -12.9892 -8.00271
rtoes -19.3351
lfemur -30.7721 11.0712 -18.4493
ltibia 47.8486
lfoot -25.3063 16.4887
ltoes -13.2811
4300
root 0.627068 17.3201 -1.88302 7.62301 -21.2689 -2.23313
lowerback 17.2507 1.22657 -4.3863
upperback 9.41421 0.833674 0.138125
thorax 0.340423 0.192757 2.4836
lowerneck -3.16481 -3.04911 -5.78473
upperneck 0.998965 -4.04383 9.09186
head 1.22558 -1.94507 3.92042
rclavicle -4.77083e-014 2.22639e-014
rhumerus 38.2314 9.77775 -53.9466
rradius 47.4984
rwrist -8.71918
rhand 28.5968 4.34772
rfingers 7.12502
rthumb 52.441 -15.4923
lclavicle -4.77083e-014 2.22639e-014
lhumerus 68.5428 -21.5321 13.3559
lradius 76.1436
lwrist 14.7534
lhand 28.4468 27.544
lfingers 7.12502
lthumb 52.3053 47.4666
rfemur -34.2486 6.70041 19.7517
rtibia 41.7053
rfoot -12.9319 -7.92934
rtoes -18.9947
lfemur -30.635 11.166 -18.4981
ltibia 47.6981
lfoot -25.3907 16.4299
ltoes -12.8794
4301
root 0.631278 17.329 -1.88281 7.61663 -21.4366 -2.20139
lowerback 17.2375 1.16669 -4.36144
upperback 9.42694 0.758248 0.0913113
thorax 0.367 0.155983 2.43288
lowerneck -3.11071 -2.98365 -5.6115
upperneck 0.9237 -3.95591 8.91753
head 1.17405 -1.90427 3.82777
rclavicle -1.11319e-014 -3.02153e-014
rhumerus 38.5673 10.1348 -53.8683
rradius 47.6805
rwrist -8.82172
rhand 28.7648 4.34082
rfingers 7.12502
rthumb 52.5931 -15.4058
lclavicle -1.11319e-014 -3.02153e-014
lhumerus 67.7996 -22.9093 13.186
lradius 75.6717
lwrist 14.275
lhand 29.1183 27.5664
lfingers 7.12502
lthumb 52.9125 47.114
rfemur -34.1754 6.80366 19.6935
rtibia 41.5214
rfoot -12.864 -7.81189
rtoes -19.0271
lfemur -30.4965 11.2639 -18.5534
ltibia 47.4859
lfoot -25.3485 16.5483
ltoes -13.1467
4302
root 0.634274 17.3416 -1.88048 7.61045 -21.6091 -2.10822
lowerback 17.5275 1.03941 -4.16986
upperback 9.23062 0.597634 -0.170415
thorax 0.0195756 0.100104 2.07365
lowerneck -3.09779 -2.89895 -5.37653
upperneck 1.09658 -3.86308 8.93001
head 1.2144 -1.85494 3.78891
rclavicle -2.10712e-014 -7.55382e-015
rhumerus 38.6714 10.5863 -54.1149
rradius 47.8914
rwrist -8.99706
rhand 28.9275 4.26191
rfingers 7.12502
rthumb 52.7402 -15.3936
lclavicle -2.10712e-014 -7.55382e-015
lhumerus 67.0315 -24.4475 12.7389
lradius 75.1824
lwrist 13.6929
lhand 29.3679 27.8207
lfingers 7.12502
lthumb 53.1378 47.2254
rfemur -34.1006 6.94502 19.5581
rtibia 41.3029
rfoot -12.7811 -7.78658
rtoes -19.2466
lfemur -30.3326 11.3405 -18.6809
ltibia 47.221
lfoot -25.2739 16.7071
ltoes -13.4573
4303
root 0.636985 17.3548 -1.87612 7.61513 -21.725 -1.99053
lowerback 17.4623 0.954825 -4.28121
upperback 9.21374 0.473721 -0.192846
thorax 0.0437695 0.0348903 2.13433
lowerneck -3.17768 -2.83627 -5.27063
upperneck 1.22803 -3.78238 8.7177
head 1.25599 -1.81293 3.6949
rclavicle 2.26615e-014 -2.98177e-014
rhumerus 39.0667 11.005 -53.8866
rradius 48.1709
rwrist -9.28443
rhand 28.8441 4.26365
rfingers 7.12502
rthumb 52.6648 -15.4387
lclavicle 2.26615e-014 -2.98177e-014
lhumerus 66.2112 -25.6743 12.7035
lradius 74.5948
lwrist 12.9988
lhand 29.5415 28.1728
lfingers 7.12502
lthumb 53.2942 47.4771
rfemur -34.0146 7.00096 19.4095
rtibia 41.0359
rfoot -12.6361 -7.75958
rtoes -19.3281
lfemur -30.1827 11.3542 -18.8307
ltibia 46.9343
lfoot -25.2304 16.7042
ltoes -13.0507
4304
root 0.639972 17.3681 -1.87378 7.60937 -21.8271 -1.90241
lowerback 17.4034 0.909697 -4.39012
upperback 9.2202 0.40254 -0.161415
thorax 0.0864462 -0.00625517 2.24125
lowerneck -3.28585 -2.79705 -5.11482
upperneck 1.34902 -3.73056 8.40736
head 1.29753 -1.78588 3.55624
rclavicle -1.35174e-014 9.14409e-015
rhumerus 39.4241 11.2694 -53.5821
rradius 48.5279
rwrist -9.51911
rhand 28.8891 4.23184
rfingers 7.12502
rthumb 52.7054 -15.4453
lclavicle -1.35174e-014 9.14409e-015
lhumerus 65.4469 -26.8557 12.8054
lradius 73.8917
lwrist 12.3653
lhand 29.6248 28.9998
lfingers 7.12502
lthumb 53.3694 48.2554
rfemur -33.8836 7.0715 19.2958
rtibia 40.7179
rfoot -12.4893 -7.72178
rtoes -19.4132
lfemur -30.0147 11.3576 -18.9421
ltibia 46.6199
lfoot -25.2175 16.6993
ltoes -12.271
